<?xml version="1.0" standalone="no"?>
<!DOCTYPE svg PUBLIC "-//W3C//DTD SVG 20010904//EN"
 "http://www.w3.org/TR/2001/REC-SVG-20010904/DTD/svg10.dtd">
<svg version="1.0" xmlns="http://www.w3.org/2000/svg"
 width="512.000000pt" height="512.000000pt" viewBox="0 0 512.000000 512.000000"
 preserveAspectRatio="xMidYMid meet">
<metadata>
Created by potrace 1.14, written by Peter Selinger 2001-2017
</metadata>
<g transform="translate(0.000000,512.000000) scale(0.100000,-0.100000)"
fill="#000000" stroke="none">
<path d="M1080 5105 c-119 -19 -268 -68 -384 -128 -346 -177 -589 -497 -673
-890 -17 -76 -18 -183 -18 -1527 0 -1374 1 -1449 19 -1530 57 -261 167 -462
355 -651 182 -183 376 -290 636 -352 89 -21 101 -21 1500 -25 961 -2 1436 1
1492 8 451 59 843 360 1017 782 20 48 48 133 63 190 l28 103 3 1415 c3 1573 4
1534 -63 1737 -66 197 -155 342 -303 495 -176 181 -379 295 -642 361 -84 21
-95 21 -1515 23 -1155 2 -1446 0 -1515 -11z m945 -1427 c28 -17 390 -240 805
-495 415 -256 772 -476 792 -490 44 -30 68 -76 68 -131 0 -53 -12 -83 -47
-115 -15 -15 -336 -216 -713 -448 -1008 -620 -954 -589 -1010 -589 -52 0 -99
25 -134 73 -21 28 -21 31 -24 1055 -1 565 0 1041 3 1057 12 71 101 131 175
119 19 -3 58 -19 85 -36z"/>
</g>
</svg>
